<?xml version="1.0" encoding="UTF-8" standalone="no"?>
<svg
   xmlns:dc="http://purl.org/dc/elements/1.1/"
   xmlns:cc="http://creativecommons.org/ns#"
   xmlns:rdf="http://www.w3.org/1999/02/22-rdf-syntax-ns#"
   xmlns:svg="http://www.w3.org/2000/svg"
   xmlns="http://www.w3.org/2000/svg"
   viewBox="0 0 1600 1200"
   height="1200"
   width="1600"
   xml:space="preserve"
   id="svg2"
   version="1.1"><metadata
     id="metadata8"><rdf:RDF><cc:Work
         rdf:about=""><dc:format>image/svg+xml</dc:format><dc:type
           rdf:resource="http://purl.org/dc/dcmitype/StillImage" /></cc:Work></rdf:RDF></metadata><defs
     id="defs6"><clipPath
       id="clipPath24"
       clipPathUnits="userSpaceOnUse"><path
         id="path22"
         d="M 0,900 H 1200 V 0 H 0 Z" /></clipPath></defs><g
     transform="matrix(1.3333333,0,0,-1.3333333,0,1200)"
     id="g10"><path
       id="path12"
       style="fill:#373535;fill-opacity:1;fill-rule:nonzero;stroke:none"
       d="M 0,31 H 1200 V 800 H 0 Z" /><g
       transform="translate(349.2656,365.374)"
       id="g14"><path
         id="path16"
         style="fill:#90c84b;fill-opacity:1;fill-rule:nonzero;stroke:none"
         d="M 0,0 V 56.098 H -20.183 V 69.035 H 34.88 V 56.098 H 14.801 L 14.801,0 Z" /></g><g
       id="g18"><g
         clip-path="url(#clipPath24)"
         id="g20"><g
           transform="translate(436.3066,412.2598)"
           id="g26"><path
             id="path28"
             style="fill:#90c84b;fill-opacity:1;fill-rule:nonzero;stroke:none"
             d="m 0,0 c 0,5.693 -4.45,9.212 -10.246,9.212 h -15.525 v -18.63 h 15.525 C -4.45,-9.418 0,-5.898 0,0 m -1.449,-46.886 -13.558,24.531 h -10.764 v -24.531 h -14.697 v 69.035 h 32.292 c 14.387,0 23.287,-9.419 23.287,-22.253 0,-12.109 -7.762,-18.732 -15.214,-20.492 l 15.629,-26.29 z" /></g><path
           id="path30"
           style="fill:#90c84b;fill-opacity:1;fill-rule:nonzero;stroke:none"
           d="M 464.662,434.409 H 479.36 V 365.374 H 464.662 Z" /><g
           transform="translate(552.3281,365.374)"
           id="g32"><path
             id="path34"
             style="fill:#90c84b;fill-opacity:1;fill-rule:nonzero;stroke:none"
             d="M 0,0 V 49.784 L -19.459,0 h -6.416 L -45.334,49.784 V 0 h -14.697 v 69.035 h 20.597 L -22.667,25.875 -5.9,69.035 H 14.8 L 14.8,0 Z" /></g><g
           transform="translate(577.8525,370.9629)"
           id="g36"><path
             id="path38"
             style="fill:#ffffff;fill-opacity:1;fill-rule:nonzero;stroke:none"
             d="m 0,0 6.418,11.179 c 2.69,-2.588 6.21,-4.968 10.971,-4.968 6.52,0 10.764,4.45 10.764,11.074 V 63.446 H 42.955 V 17.078 C 42.955,0.829 32.709,-6.83 18.631,-6.83 11.593,-6.83 4.969,-4.863 0,0" /></g><g
           transform="translate(772.6328,386.1787)"
           id="g40"><path
             id="path42"
             style="fill:#ffffff;fill-opacity:1;fill-rule:nonzero;stroke:none"
             d="M 0,0 C 0,4.347 -3.105,7.865 -8.798,7.865 H -27.843 V -7.867 H -8.798 C -3.313,-7.867 0,-4.969 0,0 m -1.346,28.048 c 0,4.244 -3.105,7.245 -8.073,7.245 h -18.424 v -14.49 h 18.424 c 4.968,0 8.073,2.795 8.073,7.245 M -42.539,-20.805 V 48.23 h 36.328 c 13.145,0 19.872,-8.383 19.872,-17.594 0,-8.591 -5.382,-14.49 -11.902,-15.836 7.452,-1.139 13.248,-8.28 13.248,-16.87 0,-10.454 -6.831,-18.735 -20.079,-18.735 z" /></g><g
           transform="translate(693.0508,376.4492)"
           id="g44"><path
             id="path46"
             style="fill:#47b754;fill-opacity:1;fill-rule:nonzero;stroke:none"
             d="M 0,0 C 12.67,9.56 15.25,27.347 5.798,39.977 -3.758,52.732 -21.678,55.201 -34.455,45.523 -47.018,36 -49.539,17.998 -40.057,5.485 -30.545,-7.053 -12.609,-9.51 0,0 m -142.86,-21.503 c 6.225,-1.556 72.309,-21.446 94.825,8.731 2.204,2.653 2.053,3.877 -0.408,6.371 -15.731,15.908 -15.962,45.612 0.392,60.952 55,52.5 156.098,13.158 156.066,13.216 C 36.949,82.551 11.76,54.551 14.311,51.687 22.821,42.141 28.613,24.81 24.949,12.551 c -26,-87 -169,-40.5 -167.809,-34.054" /></g><g
           transform="translate(695.3096,389.1973)"
           id="g48"><path
             id="path50"
             style="fill:#ffffff;fill-opacity:1;fill-rule:evenodd;stroke:none"
             d="m 0,0 c -0.638,0.17 -1.271,0.368 -1.915,0.502 -0.9,0.189 -1.805,0.37 -2.716,0.485 -0.804,0.101 -1.628,0.054 -2.427,0.174 -1.09,0.164 -2.168,0.029 -3.249,-0.035 -0.595,-0.034 -1.184,-0.178 -1.779,-0.188 -2.04,-0.043 -4.002,-0.453 -5.888,-1.219 -0.245,-0.032 -0.493,-0.065 -0.736,-0.096 -0.011,0.046 -0.024,0.092 -0.037,0.134 15.063,7.106 18.17,18.54 18.17,18.54 -12.857,-4.604 -18.197,-18.202 -18.197,-18.202 -0.115,0.004 -0.231,0.009 -0.346,0.014 l -0.034,-0.035 c 0.05,-0.108 0.103,-0.215 0.152,-0.317 -0.314,-0.007 -0.314,-0.007 -0.394,0.323 -0.017,0.016 -0.034,0.029 -0.05,0.045 -0.109,0.053 -0.215,0.107 -0.322,0.162 -0.763,1.635 -6.895,14.098 -18.16,17.883 0,0 4.122,-13.289 17.81,-17.914 l -0.07,-0.038 V 0.085 c 0.134,-0.136 0.269,-0.272 0.402,-0.408 -0.023,-0.033 -0.043,-0.065 -0.067,-0.098 -0.243,0.047 -0.484,0.096 -0.727,0.143 -0.044,0.012 -0.089,0.027 -0.135,0.038 -0.022,-0.031 -0.043,-0.062 -0.066,-0.094 0.007,0.034 0.013,0.065 0.023,0.097 h -0.044 c -0.462,-0.224 -0.72,0.176 -1.052,0.342 -0.342,0.117 -0.675,0.275 -1.026,0.34 -1.061,0.2 -2.129,0.391 -3.201,0.535 -0.813,0.114 -1.637,0.219 -2.453,0.208 -1.069,-0.014 -2.128,0.08 -3.209,-0.029 -1.598,-0.159 -3.198,-0.253 -4.766,-0.626 -0.664,-0.156 -1.322,-0.344 -1.983,-0.517 0.225,-0.225 0.446,-0.347 0.682,-0.419 1.424,-0.437 2.856,-0.827 4.336,-1.049 1.648,-0.246 3.3,-0.427 4.96,-0.393 1.414,0.03 2.824,0.219 4.237,0.272 1.379,0.051 2.667,0.46 3.962,0.87 0.211,-0.006 0.423,-0.015 0.636,-0.021 -0.01,-0.028 -0.01,-0.053 10e-4,-0.081 -0.786,-0.453 -1.609,-0.851 -2.346,-1.373 -2.497,-1.766 -4.618,-3.898 -6.169,-6.559 -0.101,-0.174 -0.165,-0.369 -0.292,-0.659 0.22,0.053 0.33,0.054 0.414,0.099 1.733,0.945 3.373,2.028 4.762,3.443 1.455,1.476 2.848,3.005 3.751,4.903 0.051,-0.006 0.099,-0.011 0.149,-0.02 -0.042,-1.3 -0.045,-2.606 -0.136,-3.902 -0.118,-1.695 -0.438,-3.36 -1.031,-4.959 -0.141,-0.38 -0.32,-0.742 -0.492,-1.134 0.277,-0.167 0.511,-0.307 0.829,-0.497 1.487,3.377 1.273,6.883 1.162,10.388 0.063,-0.009 0.126,-0.02 0.188,-0.028 1.993,-3.714 4.968,-6.384 8.711,-8.255 -0.361,0.992 -0.947,1.834 -1.567,2.659 -1.032,1.377 -2.284,2.539 -3.608,3.622 -0.9,0.738 -1.781,1.526 -2.933,1.878 -0.115,0.07 -0.229,0.142 -0.344,0.213 l -0.029,0.013 c -0.039,0.085 -0.076,0.169 -0.131,0.288 h 0.434 c 1.571,-0.506 3.154,-0.926 4.825,-0.949 0.914,-0.012 1.83,-0.115 2.745,-0.141 1.045,-0.032 2.098,-0.101 3.132,-0.014 1.279,0.109 2.559,0.301 3.815,0.566 1.297,0.272 2.566,0.675 3.849,1.021 C 0.007,-0.136 0.003,-0.066 0,0" /></g><g
           transform="translate(676.0176,421.2705)"
           id="g52"><path
             id="path54"
             style="fill:#ffffff;fill-opacity:1;fill-rule:evenodd;stroke:none"
             d="M 0,0 C -7.432,-18.127 -0.104,-31.993 -0.104,-31.993 7.337,-15.997 0,0 0,0" /></g></g></g></g></svg>